<svg xmlns="http://www.w3.org/2000/svg" viewBox="0 0 100 100" fill="none">
  <defs>
    <linearGradient id="dna-grad" x1="0%" y1="0%" x2="100%" y2="0%">
      <stop offset="0%" stop-color="#fff" stop-opacity="1"/>
      <stop offset="50%" stop-color="#fff" stop-opacity="0.4"/>
      <stop offset="100%" stop-color="#fff" stop-opacity="1"/>
    </linearGradient>
  </defs>
  <g stroke="url(#dna-grad)" stroke-width="2.5" stroke-linecap="round" fill="none">
    <path d="M30 15 Q50 25 70 15 Q50 5 30 15Z" opacity="0.9"/>
    <path d="M30 35 Q50 45 70 35 Q50 25 30 35Z" opacity="0.7"/>
    <path d="M30 55 Q50 65 70 55 Q50 45 30 55Z" opacity="0.5"/>
    <path d="M30 75 Q50 85 70 75 Q50 65 30 75Z" opacity="0.3"/>
    <line x1="30" y1="15" x2="30" y2="75" opacity="0.6"/>
    <line x1="70" y1="15" x2="70" y2="75" opacity="0.6"/>
    <line x1="50" y1="5" x2="50" y2="25" opacity="0.6"/>
    <line x1="50" y1="25" x2="50" y2="45" opacity="0.5"/>
    <line x1="50" y1="45" x2="50" y2="65" opacity="0.4"/>
    <line x1="50" y1="65" x2="50" y2="85" opacity="0.3"/>
  </g>
</svg>
